<svg width="78" height="22" viewBox="0 0 78 22" fill="none" xmlns="http://www.w3.org/2000/svg">
<path d="M0 16.2562L4.22666 2.62696L7.22054 2.62696L11.1732 16.2562H8.31634L7.22054 12.44L2.7982 12.44L1.6437 16.2562H0ZM3.18956 11.119L6.84875 11.119L5.10721 4.7028H5.06807L3.18956 11.119Z" fill="white"/>
<path d="M16.3757 16.4868C14.8755 16.4868 13.721 16.0255 12.9122 15.1029C12.1164 14.1803 11.7185 12.8384 11.7185 11.0771C11.7185 9.37167 12.136 8.02273 12.9709 7.03024C13.8058 6.03776 14.9603 5.54152 16.4344 5.54152C16.8388 5.54152 17.2497 5.60442 17.6672 5.73023C18.0977 5.84206 18.4564 5.96787 18.7434 6.10765C19.0304 6.23346 19.213 6.31733 19.2913 6.35927L19.0369 7.70122C18.9717 7.65928 18.8086 7.5824 18.5477 7.47057C18.2868 7.34477 17.9868 7.22595 17.6476 7.11412C17.3084 7.00229 17.0019 6.94637 16.7279 6.94637C16.2322 6.94637 15.8278 7.0582 15.5147 7.28186C15.2016 7.50552 14.9603 7.91789 14.7907 8.51897C14.6211 9.10608 14.5363 9.9448 14.5363 11.0351C14.5363 12.5868 14.7189 13.6491 15.0842 14.2223C15.4495 14.7954 15.9713 15.082 16.6496 15.082C17.1062 15.082 17.4976 14.9771 17.8237 14.7674C18.1629 14.5438 18.4238 14.3131 18.6064 14.0755C18.7891 13.8239 18.8804 13.6771 18.8804 13.6352L19.8001 14.2642C19.8001 14.3481 19.6827 14.5787 19.4478 14.9562C19.213 15.3196 18.8412 15.6691 18.3325 16.0046C17.8237 16.3261 17.1715 16.4868 16.3757 16.4868Z" fill="white"/>
<path d="M23.4258 16.4868C22.5126 16.4868 21.7821 16.2422 21.2342 15.7529C20.6863 15.2637 20.4123 14.5927 20.4123 13.74C20.4123 12.5099 20.9472 11.6222 22.0169 11.0771C23.0996 10.5179 24.3585 10.1754 25.7935 10.0496V9.44157C25.7935 8.49102 25.6696 7.84101 25.4217 7.49154C25.1738 7.1281 24.7564 6.94637 24.1694 6.94637C23.8954 6.94637 23.5823 7.00229 23.2301 7.11412C22.8909 7.22595 22.5909 7.34477 22.33 7.47057C22.0821 7.59638 21.9191 7.68025 21.8408 7.72219L21.5864 6.38024C21.6647 6.3383 21.8473 6.25443 22.1343 6.12862C22.4343 5.98883 22.8061 5.85604 23.2497 5.73023C23.7062 5.60442 24.1628 5.54152 24.6194 5.54152C25.8457 5.54152 26.7784 5.82109 27.4176 6.38024C28.0699 6.92541 28.396 7.86897 28.396 9.21092L28.396 13.9707C28.396 14.7115 28.533 15.082 28.8069 15.082C28.9113 15.082 29.0352 15.061 29.1787 15.0191C29.3222 14.9771 29.4201 14.9492 29.4722 14.9352L29.5505 16.0255C29.4853 16.0535 29.3287 16.1024 29.0809 16.1723C28.833 16.2422 28.546 16.3121 28.2199 16.382C27.9068 16.4519 27.6263 16.4868 27.3785 16.4868C27.0002 16.4868 26.7066 16.389 26.4979 16.1933C26.2892 15.9836 26.1522 15.6481 26.087 15.1868H25.9892C25.9892 15.2287 25.8978 15.3615 25.7152 15.5852C25.5456 15.7949 25.2717 15.9976 24.8934 16.1933C24.5151 16.389 24.0259 16.4868 23.4258 16.4868ZM24.2868 15.082C24.5998 15.082 24.8673 14.9981 25.089 14.8303C25.3239 14.6626 25.5 14.4809 25.6174 14.2852C25.7348 14.0755 25.7935 13.9567 25.7935 13.9287L25.7935 11.1609C24.9195 11.2588 24.2541 11.4825 23.7976 11.8319C23.354 12.1674 23.1323 12.6846 23.1323 13.3836C23.1323 13.9427 23.2366 14.3691 23.4453 14.6626C23.6541 14.9422 23.9345 15.082 24.2868 15.082Z" fill="white"/>
<path d="M34.5735 16.4868C33.7647 16.4868 33.0472 16.2702 32.421 15.8368C31.8079 15.4035 31.3317 14.7954 30.9926 14.0126C30.6534 13.2158 30.4838 12.2932 30.4838 11.2448C30.4838 10.1125 30.6469 9.12006 30.973 8.26736C31.2991 7.40068 31.7622 6.73669 32.3623 6.2754C32.9624 5.80012 33.6603 5.56248 34.4561 5.56248C34.9648 5.56248 35.3888 5.62539 35.728 5.7512C36.0672 5.86303 36.3215 5.98883 36.4911 6.12862C36.6607 6.25443 36.7455 6.33131 36.7455 6.35927H36.8042V0.614032L39.4067 0.446289V16.2562H37.2347L36.9412 15.3126H36.9216C36.9216 15.3545 36.8434 15.4734 36.6868 15.6691C36.5303 15.8648 36.2759 16.0535 35.9237 16.2352C35.5845 16.4029 35.1344 16.4868 34.5735 16.4868ZM35.1605 14.8513C35.4867 14.8513 35.7671 14.7814 36.0019 14.6416C36.2498 14.5018 36.4455 14.3481 36.589 14.1803C36.7325 14.0126 36.8042 13.9147 36.8042 13.8868V7.848C36.7781 7.80606 36.6999 7.73617 36.5694 7.63832C36.452 7.52649 36.2759 7.42165 36.0411 7.3238C35.8193 7.21197 35.5584 7.15605 35.2584 7.15605C34.5539 7.15605 34.0452 7.45659 33.7321 8.05768C33.432 8.65876 33.282 9.69318 33.282 11.1609C33.282 12.1395 33.3472 12.8943 33.4777 13.4255C33.6212 13.9567 33.8234 14.3271 34.0843 14.5368C34.3582 14.7465 34.717 14.8513 35.1605 14.8513Z" fill="white"/>
<path d="M45.7256 16.4868C44.2776 16.4868 43.1492 16.0605 42.3404 15.2078C41.5446 14.3411 41.1468 13.0061 41.1468 11.2029C41.1468 9.38565 41.5381 7.99477 42.3208 7.03024C43.1035 6.05174 44.1602 5.56248 45.4908 5.56248C46.704 5.56248 47.6433 5.97485 48.3086 6.7996C48.9869 7.61036 49.3261 8.77758 49.3261 10.3013C49.3261 10.6507 49.3 10.9443 49.2479 11.1819C49.2087 11.4195 49.1826 11.5663 49.1696 11.6222L43.9058 11.6222C43.9189 12.8803 44.0885 13.775 44.4146 14.3061C44.7538 14.8234 45.2951 15.082 46.0387 15.082C46.4823 15.082 46.8736 14.9841 47.2128 14.7884C47.552 14.5787 47.8194 14.3551 48.0151 14.1174C48.2108 13.8658 48.3086 13.726 48.3086 13.6981L49.1892 14.432C49.1892 14.4879 49.0522 14.6906 48.7782 15.04C48.5173 15.3895 48.126 15.718 47.6042 16.0255C47.0954 16.3331 46.4692 16.4868 45.7256 16.4868ZM46.8997 10.2593V9.77706C46.8997 8.71468 46.7953 7.97381 46.5866 7.55445C46.3779 7.12111 46.0126 6.90444 45.4908 6.90444C45.1256 6.90444 44.832 7.00229 44.6103 7.19799C44.4015 7.39369 44.2385 7.73617 44.1211 8.22542C44.0037 8.7007 43.9319 9.37866 43.9058 10.2593L46.8997 10.2593Z" fill="white"/>
<path d="M51.0213 5.77216H53.1151L53.4477 6.71573H53.5064C53.5064 6.68777 53.6239 6.57594 53.8587 6.38024C54.0935 6.17056 54.4 5.98184 54.7784 5.8141C55.1697 5.64636 55.6067 5.56248 56.0894 5.56248C56.6243 5.56248 57.0678 5.65335 57.42 5.83507C57.7722 6.01679 58.0462 6.29636 58.2419 6.67379C58.4636 6.47809 58.6528 6.32432 58.8093 6.21249C58.9789 6.08668 59.2594 5.9469 59.6508 5.79313C60.0552 5.63937 60.5117 5.56248 61.0205 5.56248C61.9467 5.56248 62.612 5.82808 63.0164 6.35927C63.4208 6.87648 63.623 7.73617 63.623 8.93833V16.2562H61.0205V9.14802C61.0205 8.39317 60.9357 7.89692 60.7661 7.65928C60.6096 7.40767 60.3487 7.28186 59.9834 7.28186C59.6573 7.28186 59.3768 7.37272 59.142 7.55445C58.9072 7.72219 58.7245 7.89692 58.5941 8.07865C58.6202 8.41413 58.6332 8.68672 58.6332 8.8964V16.2562L56.0307 16.2562V9.14802C56.0307 8.40715 55.9459 7.9109 55.7763 7.65928C55.6198 7.40767 55.3654 7.28186 55.0132 7.28186C54.674 7.28186 54.3805 7.37272 54.1326 7.55445C53.8848 7.73617 53.7152 7.89692 53.6239 8.03671V16.2562H51.0213V5.77216Z" fill="white"/>
<path d="M76.2477 16.5917C75.8172 16.5917 75.4519 16.4449 75.1519 16.1513C74.8388 15.8158 74.6822 15.4035 74.6822 14.9142C74.6822 14.425 74.8388 14.0056 75.1519 13.6561C75.4519 13.3626 75.8172 13.2158 76.2477 13.2158C76.6782 13.2158 77.0369 13.3626 77.3239 13.6561C77.637 14.0056 77.7935 14.425 77.7935 14.9142C77.7935 15.4035 77.637 15.8158 77.3239 16.1513C77.0369 16.4449 76.6782 16.5917 76.2477 16.5917Z" fill="white"/>
<path d="M66.8166 21.7288C66.5165 21.7288 66.2491 21.7009 66.0143 21.6449C65.7925 21.603 65.6229 21.5541 65.5055 21.4982C65.3881 21.4562 65.3164 21.4283 65.2903 21.4143L65.5055 19.7788C65.5577 19.8067 65.6881 19.8487 65.8969 19.9046C66.1056 19.9745 66.3143 20.0094 66.523 20.0094C67.1101 20.0094 67.5862 19.7578 67.9515 19.2546C68.3168 18.7653 68.7212 17.9056 69.1647 16.6755L69.6343 15.7898L72.5499 5.77216H74.1741L70.7888 16.4868C70.3844 17.675 69.9996 18.6395 69.6343 19.3804C69.2821 20.1213 68.8777 20.6944 68.4211 21.0998C67.9645 21.5191 67.4297 21.7288 66.8166 21.7288Z" fill="white"/>
<path d="M64.8016 5.7877H67.4405L70.1284 16.2611H67.4894L64.8016 5.7877Z" fill="white"/>
</svg>
