<svg width="189" height="56" viewBox="0 0 189 56" fill="#040404" xmlns="http://www.w3.org/2000/svg">
<path d="M4 41.6572L13.834 10.9182L20.7998 10.9182L29.9965 41.6572L23.3494 41.6572L20.7998 33.0503H10.5105L7.82435 41.6572H4ZM11.4211 30.0709L19.9348 30.0709L15.8828 15.6H15.7917L11.4211 30.0709Z" fill="#040404"/>
<path d="M42.1009 42.1774C38.6104 42.1774 35.9242 41.137 34.0424 39.0562C32.1909 36.9754 31.2652 33.9488 31.2652 29.9764C31.2652 26.1301 32.2365 23.0877 34.179 20.8493C36.1215 18.6108 38.8077 17.4916 42.2374 17.4916C43.1784 17.4916 44.1344 17.6335 45.1057 17.9172C46.1073 18.1695 46.942 18.4532 47.6097 18.7685C48.2775 19.0522 48.7024 19.2414 48.8845 19.336L48.2927 22.3626C48.1409 22.268 47.7615 22.0946 47.1545 21.8424C46.5474 21.5586 45.8493 21.2906 45.0602 21.0384C44.271 20.7862 43.5578 20.6601 42.9204 20.6601C41.767 20.6601 40.8261 20.9123 40.0976 21.4168C39.3692 21.9212 38.8077 22.8512 38.4131 24.2069C38.0185 25.531 37.8212 27.4227 37.8212 29.8818C37.8212 33.3813 38.2462 35.7774 39.096 37.07C39.9459 38.3626 41.16 39.0089 42.7383 39.0089C43.8006 39.0089 44.7111 38.7724 45.4699 38.2995C46.2591 37.7951 46.8661 37.2749 47.291 36.7389C47.716 36.1714 47.9284 35.8404 47.9284 35.7458L50.0683 37.1645C50.0683 37.3537 49.7951 37.8739 49.2487 38.7251C48.7024 39.5448 47.8374 40.333 46.6537 41.0897C45.4699 41.8148 43.9523 42.1774 42.1009 42.1774Z" fill="#040404"/>
<path d="M58.5041 42.1774C56.3794 42.1774 54.6797 41.6256 53.405 40.5222C52.1302 39.4187 51.4928 37.9054 51.4928 35.9823C51.4928 33.2079 52.7372 31.2059 55.2261 29.9764C57.7453 28.7153 60.6743 27.9429 64.013 27.6591V26.2877C64.013 24.1439 63.7246 22.6778 63.1479 21.8897C62.5713 21.07 61.6 20.6601 60.2341 20.6601C59.5968 20.6601 58.8683 20.7862 58.0488 21.0384C57.2597 21.2906 56.5616 21.5586 55.9545 21.8424C55.3778 22.1261 54.9984 22.3153 54.8163 22.4099L54.2245 19.3833C54.4066 19.2887 54.8315 19.0995 55.4992 18.8158C56.1973 18.5005 57.0624 18.201 58.0943 17.9172C59.1567 17.6335 60.219 17.4916 61.2813 17.4916C64.1344 17.4916 66.3045 18.1222 67.7918 19.3833C69.3094 20.6128 70.0682 22.7409 70.0682 25.7675V36.5025C70.0682 38.1734 70.3869 39.0089 71.0243 39.0089C71.2671 39.0089 71.5554 38.9616 71.8893 38.867C72.2232 38.7724 72.4508 38.7094 72.5722 38.6778L72.7543 41.137C72.6026 41.2 72.2384 41.3104 71.6617 41.468C71.085 41.6256 70.4172 41.7833 69.6584 41.9409C68.93 42.0985 68.2774 42.1774 67.7007 42.1774C66.8205 42.1774 66.1376 41.9567 65.652 41.5153C65.1663 41.0424 64.8477 40.2857 64.6959 39.2453H64.4682C64.4682 39.3399 64.2558 39.6394 63.8309 40.1439C63.4363 40.6168 62.7989 41.0739 61.9187 41.5153C61.0385 41.9567 59.9003 42.1774 58.5041 42.1774ZM60.5073 39.0089C61.2358 39.0089 61.858 38.8197 62.374 38.4414C62.9203 38.0631 63.3301 37.6532 63.6032 37.2118C63.8764 36.7389 64.013 36.4709 64.013 36.4079V30.1655C61.9794 30.3862 60.4314 30.8907 59.3691 31.6788C58.3372 32.4355 57.8212 33.602 57.8212 35.1783C57.8212 36.4394 58.064 37.401 58.5496 38.0631C59.0352 38.6936 59.6878 39.0089 60.5073 39.0089Z" fill="#040404"/>
<path d="M84.4412 42.1774C82.5593 42.1774 80.89 41.6887 79.4331 40.7113C78.0065 39.734 76.8987 38.3626 76.1095 36.5971C75.3204 34.8 74.9258 32.7192 74.9258 30.3547C74.9258 27.801 75.3052 25.5626 76.064 23.6394C76.8228 21.6847 77.9003 20.1872 79.2965 19.1468C80.6927 18.0749 82.3165 17.5389 84.168 17.5389C85.3517 17.5389 86.3382 17.6808 87.1273 17.9645C87.9165 18.2168 88.5083 18.5005 88.9029 18.8158C89.2975 19.0995 89.4948 19.2729 89.4948 19.336H89.6313V6.37832L95.6866 6V41.6572H90.633L89.95 39.5291H89.9045C89.9045 39.6237 89.7224 39.8916 89.3582 40.333C88.9939 40.7744 88.4021 41.2 87.5826 41.6099C86.7934 41.9882 85.7463 42.1774 84.4412 42.1774ZM85.807 38.4887C86.5658 38.4887 87.2184 38.331 87.7647 38.0158C88.3414 37.7005 88.7967 37.3537 89.1305 36.9754C89.4644 36.5971 89.6313 36.3764 89.6313 36.3133V22.6936C89.5706 22.599 89.3885 22.4414 89.085 22.2207C88.8118 21.9685 88.4021 21.732 87.8558 21.5113C87.3398 21.2591 86.7327 21.133 86.0346 21.133C84.3956 21.133 83.2119 21.8108 82.4835 23.1665C81.7854 24.5222 81.4363 26.8552 81.4363 30.1655C81.4363 32.3724 81.5881 34.0749 81.8916 35.2729C82.2255 36.4709 82.6959 37.3064 83.303 37.7793C83.9403 38.2522 84.775 38.4887 85.807 38.4887Z" fill="#040404"/>
<path d="M110.389 42.1774C107.019 42.1774 104.394 41.2158 102.512 39.2926C100.661 37.3379 99.735 34.3271 99.735 30.2601C99.735 26.1616 100.646 23.0246 102.467 20.8493C104.288 18.6424 106.746 17.5389 109.842 17.5389C112.665 17.5389 114.85 18.469 116.398 20.3291C117.977 22.1576 118.766 24.7902 118.766 28.2266C118.766 29.0148 118.705 29.6769 118.584 30.2128C118.493 30.7488 118.432 31.0798 118.401 31.2059H106.154C106.185 34.0434 106.579 36.0611 107.338 37.2591C108.127 38.4256 109.387 39.0089 111.117 39.0089C112.149 39.0089 113.06 38.7882 113.849 38.3468C114.638 37.8739 115.26 37.3695 115.715 36.8335C116.171 36.266 116.398 35.9508 116.398 35.8877L118.447 37.5429C118.447 37.669 118.128 38.1261 117.491 38.9143C116.884 39.7025 115.973 40.4434 114.759 41.137C113.576 41.8306 112.119 42.1774 110.389 42.1774ZM113.12 28.132V27.0443C113.12 24.6483 112.877 22.9773 112.392 22.0315C111.906 21.0542 111.056 20.5655 109.842 20.5655C108.992 20.5655 108.309 20.7862 107.793 21.2276C107.308 21.669 106.928 22.4414 106.655 23.5448C106.382 24.6168 106.215 26.1458 106.154 28.132H113.12Z" fill="#040404"/>
<path d="M122.71 18.0118H127.581L128.355 20.1399H128.492C128.492 20.0769 128.765 19.8246 129.311 19.3833C129.858 18.9103 130.571 18.4847 131.451 18.1064C132.362 17.7281 133.379 17.5389 134.502 17.5389C135.746 17.5389 136.778 17.7438 137.598 18.1537C138.417 18.5636 139.054 19.1941 139.51 20.0453C140.026 19.6039 140.466 19.2571 140.83 19.0049C141.225 18.7212 141.877 18.4059 142.788 18.0591C143.729 17.7123 144.791 17.5389 145.975 17.5389C148.13 17.5389 149.678 18.1379 150.619 19.336C151.559 20.5025 152.03 22.4414 152.03 25.1527V41.6572H145.975V25.6256C145.975 23.9232 145.777 22.8039 145.383 22.268C145.019 21.7005 144.412 21.4168 143.562 21.4168C142.803 21.4168 142.15 21.6217 141.604 22.0315C141.058 22.4099 140.633 22.8039 140.329 23.2138C140.39 23.9705 140.42 24.5852 140.42 25.0581V41.6572H134.365V25.6256C134.365 23.9547 134.168 22.8355 133.773 22.268C133.409 21.7005 132.817 21.4168 131.998 21.4168C131.208 21.4168 130.526 21.6217 129.949 22.0315C129.372 22.4414 128.978 22.8039 128.765 23.1192V41.6572H122.71V18.0118Z" fill="#040404"/>
<path d="M181.403 42.4138C180.402 42.4138 179.552 42.0828 178.854 41.4207C178.125 40.6641 177.761 39.734 177.761 38.6306C177.761 37.5271 178.125 36.5813 178.854 35.7931C179.552 35.131 180.402 34.8 181.403 34.8C182.405 34.8 183.24 35.131 183.907 35.7931C184.636 36.5813 185 37.5271 185 38.6306C185 39.734 184.636 40.6641 183.907 41.4207C183.24 42.0828 182.405 42.4138 181.403 42.4138Z" fill="#040404"/>
<path d="M159.46 54C158.762 54 158.14 53.9369 157.594 53.8108C157.078 53.7163 156.683 53.6059 156.41 53.4798C156.137 53.3852 155.97 53.3222 155.909 53.2906L156.41 49.602C156.531 49.665 156.835 49.7596 157.32 49.8857C157.806 50.0434 158.292 50.1222 158.777 50.1222C160.143 50.1222 161.251 49.5547 162.101 48.4197C162.951 47.3163 163.892 45.3773 164.924 42.603L166.016 40.6052L172.8 18.0118H176.579L168.702 42.1773C167.761 44.8571 166.866 47.0325 166.016 48.7034C165.197 50.3744 164.256 51.667 163.193 52.5813C162.131 53.5271 160.887 54 159.46 54Z" fill="#040404"/>
<path d="M154.772 18.0469H160.912L167.166 41.6682H161.026L154.772 18.0469Z" fill="#040404" stroke="#040404"/>
</svg>
