<svg width="9" height="12" viewBox="0 0 9 12" fill="none" xmlns="http://www.w3.org/2000/svg">
<path d="M7.6245 6.705C7.2315 7.5015 6.699 8.295 6.1545 9.0075C5.63797 9.67921 5.08567 10.3226 4.5 10.935C3.91431 10.3227 3.36201 9.67922 2.8455 9.0075C2.301 8.295 1.7685 7.5015 1.3755 6.705C0.978 5.90025 0.75 5.1465 0.75 4.5C0.75 3.50544 1.14509 2.55161 1.84835 1.84835C2.55161 1.14509 3.50544 0.75 4.5 0.75C5.49456 0.75 6.44839 1.14509 7.15165 1.84835C7.85491 2.55161 8.25 3.50544 8.25 4.5C8.25 5.1465 8.02125 5.90025 7.6245 6.705ZM4.5 12C4.5 12 9 7.7355 9 4.5C9 3.30653 8.52589 2.16193 7.68198 1.31802C6.83807 0.474106 5.69347 0 4.5 0C3.30653 0 2.16193 0.474106 1.31802 1.31802C0.474106 2.16193 1.77842e-08 3.30653 0 4.5C0 7.7355 4.5 12 4.5 12Z" fill="white"/>
<path d="M4.5 6.16667C4.05797 6.16667 3.63405 5.99107 3.32149 5.67851C3.00893 5.36595 2.83333 4.94203 2.83333 4.5C2.83333 4.05797 3.00893 3.63405 3.32149 3.32149C3.63405 3.00893 4.05797 2.83333 4.5 2.83333C4.94203 2.83333 5.36595 3.00893 5.67851 3.32149C5.99107 3.63405 6.16667 4.05797 6.16667 4.5C6.16667 4.94203 5.99107 5.36595 5.67851 5.67851C5.36595 5.99107 4.94203 6.16667 4.5 6.16667ZM4.5 7C5.16304 7 5.79893 6.73661 6.26777 6.26777C6.73661 5.79893 7 5.16304 7 4.5C7 3.83696 6.73661 3.20107 6.26777 2.73223C5.79893 2.26339 5.16304 2 4.5 2C3.83696 2 3.20107 2.26339 2.73223 2.73223C2.26339 3.20107 2 3.83696 2 4.5C2 5.16304 2.26339 5.79893 2.73223 6.26777C3.20107 6.73661 3.83696 7 4.5 7Z" fill="white"/>
</svg>
