<svg width="120" height="120" viewBox="0 0 120 120" fill="none" xmlns="http://www.w3.org/2000/svg">
<path d="M4 103.26L10.0852 84.6844H14.3955L20.0862 103.26H15.9731L14.3955 98.0592H8.0286L6.36645 103.26H4ZM8.59204 96.2588H13.8602L11.3529 87.5137H11.2965L8.59204 96.2588Z" fill="white"/>
<path d="M27.5762 103.575C25.4164 103.575 23.7542 102.946 22.5898 101.689C21.4441 100.431 20.8713 98.6022 20.8713 96.2016C20.8713 93.8772 21.4723 92.0387 22.6743 90.6859C23.8763 89.3332 25.5384 88.6569 27.6607 88.6569C28.243 88.6569 28.8346 88.7426 29.4356 88.9141C30.0554 89.0665 30.5718 89.238 30.985 89.4285C31.3982 89.6 31.6612 89.7143 31.7739 89.7714L31.4076 91.6005C31.3137 91.5433 31.0789 91.4385 30.7033 91.2861C30.3277 91.1146 29.8957 90.9527 29.4074 90.8003C28.9191 90.6478 28.4777 90.5716 28.0833 90.5716C27.3696 90.5716 26.7874 90.724 26.3367 91.0289C25.8859 91.3337 25.5384 91.8958 25.2943 92.715C25.0501 93.5152 24.9281 94.6584 24.9281 96.1444C24.9281 98.2593 25.191 99.7072 25.7169 100.488C26.2428 101.27 26.994 101.66 27.9706 101.66C28.628 101.66 29.1914 101.517 29.661 101.231C30.1493 100.927 30.5249 100.612 30.7878 100.288C31.0508 99.9454 31.1822 99.7453 31.1822 99.6882L32.5063 100.546C32.5063 100.66 32.3373 100.974 31.9992 101.489C31.6612 101.984 31.1259 102.46 30.3934 102.918C29.6609 103.356 28.7219 103.575 27.5762 103.575Z" fill="white"/>
<path d="M37.7263 103.575C36.4116 103.575 35.3598 103.241 34.571 102.575C33.7822 101.908 33.3878 100.993 33.3878 99.8311C33.3878 98.1545 34.1578 96.9446 35.6979 96.2016C37.2568 95.4395 39.0692 94.9727 41.1351 94.8012V93.9725C41.1351 92.6769 40.9567 91.791 40.5998 91.3147C40.243 90.8193 39.642 90.5716 38.7968 90.5716C38.4024 90.5716 37.9517 90.6478 37.4446 90.8003C36.9563 90.9527 36.5243 91.1146 36.1487 91.2861C35.7918 91.4576 35.557 91.5719 35.4444 91.629L35.0781 89.8C35.1908 89.7428 35.4537 89.6285 35.8669 89.4571C36.2989 89.2665 36.8342 89.0855 37.4727 88.9141C38.1301 88.7426 38.7874 88.6569 39.4448 88.6569C41.2102 88.6569 42.5531 89.0379 43.4734 89.8C44.4124 90.543 44.882 91.8291 44.882 93.6581V100.145C44.882 101.155 45.0792 101.66 45.4736 101.66C45.6238 101.66 45.8023 101.632 46.0089 101.574C46.2155 101.517 46.3563 101.479 46.4314 101.46L46.5441 102.946C46.4502 102.984 46.2248 103.051 45.868 103.146C45.5112 103.241 45.098 103.337 44.6284 103.432C44.1777 103.527 43.7739 103.575 43.417 103.575C42.8724 103.575 42.4498 103.441 42.1493 103.175C41.8488 102.889 41.6516 102.432 41.5577 101.803H41.4168C41.4168 101.86 41.2854 102.041 41.0224 102.346C40.7783 102.632 40.3838 102.908 39.8392 103.175C39.2945 103.441 38.5902 103.575 37.7263 103.575ZM38.9659 101.66C39.4166 101.66 39.8016 101.546 40.1209 101.317C40.459 101.089 40.7125 100.841 40.8816 100.574C41.0506 100.288 41.1351 100.126 41.1351 100.088V96.3159C39.8768 96.4493 38.9189 96.7541 38.2616 97.2304C37.623 97.6877 37.3037 98.3926 37.3037 99.3452C37.3037 100.107 37.454 100.688 37.7545 101.089C38.055 101.47 38.4588 101.66 38.9659 101.66Z" fill="white"/>
<path d="M53.7757 103.575C52.6113 103.575 51.5783 103.28 50.6768 102.689C49.7941 102.098 49.1086 101.27 48.6203 100.203C48.132 99.1166 47.8878 97.8591 47.8878 96.4302C47.8878 94.887 48.1226 93.5343 48.5921 92.3721C49.0616 91.1908 49.7284 90.2858 50.5923 89.6571C51.4562 89.0093 52.4611 88.6854 53.6067 88.6854C54.3392 88.6854 54.9496 88.7712 55.4379 88.9426C55.9262 89.0951 56.2924 89.2665 56.5366 89.4571C56.7808 89.6285 56.9028 89.7333 56.9028 89.7714H56.9874V81.9409L60.7342 81.7123V103.26L57.6071 103.26L57.1846 101.974H57.1564C57.1564 102.032 57.0437 102.194 56.8183 102.46C56.5929 102.727 56.2267 102.984 55.7196 103.232C55.2313 103.461 54.5833 103.575 53.7757 103.575ZM54.6209 101.346C55.0904 101.346 55.4942 101.25 55.8323 101.06C56.1891 100.869 56.4709 100.66 56.6775 100.431C56.8841 100.203 56.9874 100.069 56.9874 100.031V91.8005C56.9498 91.7433 56.8371 91.6481 56.6493 91.5147C56.4803 91.3623 56.2267 91.2194 55.8886 91.086C55.5694 90.9336 55.1937 90.8574 54.7618 90.8574C53.7476 90.8574 53.0151 91.267 52.5643 92.0863C52.1324 92.9055 51.9164 94.3154 51.9164 96.3159C51.9164 97.6496 52.0103 98.6784 52.1981 99.4024C52.4047 100.126 52.6958 100.631 53.0714 100.917C53.4659 101.203 53.9823 101.346 54.6209 101.346Z" fill="white"/>
<path d="M69.8316 103.575C67.7469 103.575 66.1223 102.994 64.9578 101.832C63.8122 100.65 63.2393 98.8308 63.2393 96.3731C63.2393 93.8963 63.8028 92.0006 64.9297 90.6859C66.0565 89.3523 67.5778 88.6854 69.4935 88.6854C71.2402 88.6854 72.5925 89.2475 73.5503 90.3716C74.5269 91.4766 75.0152 93.0675 75.0152 95.1442C75.0152 95.6205 74.9777 96.0206 74.9025 96.3445C74.8462 96.6684 74.8086 96.8684 74.7899 96.9446H67.2116C67.2304 98.6593 67.4745 99.8787 67.9441 100.603C68.4324 101.308 69.2118 101.66 70.2823 101.66C70.9209 101.66 71.4843 101.527 71.9727 101.26C72.461 100.974 72.846 100.669 73.1277 100.345C73.4094 100.003 73.5503 99.812 73.5503 99.7739L74.818 100.774C74.818 100.85 74.6208 101.127 74.2264 101.603C73.8508 102.079 73.2874 102.527 72.5361 102.946C71.8036 103.365 70.9021 103.575 69.8316 103.575ZM71.5219 95.087V94.4297C71.5219 92.9817 71.3717 91.972 71.0712 91.4004C70.7707 90.8098 70.2448 90.5145 69.4935 90.5145C68.9677 90.5145 68.5451 90.6478 68.2258 90.9146C67.9253 91.1813 67.6905 91.6481 67.5215 92.3149C67.3525 92.9627 67.2492 93.8867 67.2116 95.087H71.5219Z" fill="white"/>
<path d="M77.4558 88.9712H80.4703L80.9492 90.2573H81.0337C81.0337 90.2192 81.2027 90.0667 81.5408 89.8C81.8789 89.5142 82.3202 89.257 82.8649 89.0284C83.4283 88.7998 84.0575 88.6854 84.7524 88.6854C85.5224 88.6854 86.161 88.8093 86.6681 89.057C87.1752 89.3046 87.5696 89.6857 87.8513 90.2001C88.1706 89.9334 88.4429 89.7238 88.6683 89.5714C88.9125 89.3999 89.3163 89.2094 89.8797 88.9998C90.4619 88.7902 91.1193 88.6854 91.8517 88.6854C93.1852 88.6854 94.1431 89.0474 94.7253 89.7714C95.3075 90.4764 95.5986 91.6481 95.5986 93.2866V103.26H91.8517V93.5724C91.8517 92.5435 91.7297 91.8672 91.4855 91.5433C91.2601 91.2004 90.8845 91.0289 90.3586 91.0289C89.8891 91.0289 89.4853 91.1527 89.1472 91.4004C88.8092 91.629 88.5462 91.8672 88.3584 92.1149C88.396 92.5721 88.4148 92.9436 88.4148 93.2294V103.26H84.6679V93.5724C84.6679 92.5626 84.5458 91.8862 84.3016 91.5433C84.0763 91.2004 83.71 91.0289 83.2029 91.0289C82.7146 91.0289 82.292 91.1527 81.9352 91.4004C81.5784 91.6481 81.3342 91.8672 81.2027 92.0577V103.26H77.4558V88.9712Z" fill="white"/>
<path d="M113.774 103.718C113.155 103.718 112.629 103.518 112.197 103.118C111.746 102.66 111.521 102.098 111.521 101.431C111.521 100.765 111.746 100.193 112.197 99.7168C112.629 99.3167 113.155 99.1166 113.774 99.1166C114.394 99.1166 114.911 99.3167 115.324 99.7168C115.775 100.193 116 100.765 116 101.431C116 102.098 115.775 102.66 115.324 103.118C114.911 103.518 114.394 103.718 113.774 103.718Z" fill="white"/>
<path d="M100.196 110.719C99.7644 110.719 99.3794 110.681 99.0413 110.605C98.722 110.548 98.4779 110.481 98.3088 110.405C98.1398 110.348 98.0365 110.31 97.9989 110.291L98.3088 108.062C98.384 108.1 98.5718 108.157 98.8723 108.233C99.1728 108.328 99.4733 108.376 99.7738 108.376C100.619 108.376 101.304 108.033 101.83 107.347C102.356 106.68 102.938 105.509 103.577 103.832L104.253 102.625L108.451 88.9712H110.789L105.915 103.575C105.333 105.194 104.779 106.509 104.253 107.519C103.746 108.528 103.164 109.31 102.506 109.862C101.849 110.434 101.079 110.719 100.196 110.719Z" fill="white"/>
<path d="M97.2954 88.9924H101.095L104.964 103.267H101.165L97.2954 88.9924Z" fill="white"/>
<path d="M90.2981 63.1799L59.6383 10L51.1604 24.7051L73.3423 63.1799H90.2981Z" fill="white"/>
<path d="M56.4483 52.8984L38.2793 57.3301V47.9297L28.9785 63.1799L56.4483 52.8984Z" fill="white"/>
</svg>
