<svg width="88" height="94" viewBox="0 0 88 94" fill="none" xmlns="http://www.w3.org/2000/svg" data-v-3fc2f272=""><path fill-rule="evenodd" clip-rule="evenodd" d="M59.7764 10.6957H28.0524C17.0084 10.6957 10.082 18.9962 10.082 30.7429V62.428C10.082 74.1747 16.979 82.4752 28.0524 82.4752H59.758C70.8497 82.4752 77.743 74.1747 77.743 62.428V30.7429C77.7577 18.9962 70.8607 10.6957 59.7764 10.6957Z" stroke="#828282" stroke-width="1.5" stroke-linecap="round" stroke-linejoin="round"></path><path fill-rule="evenodd" clip-rule="evenodd" d="M39.2444 34.1705C39.2444 38.1379 36.2157 41.3508 32.4757 41.3508C28.7394 41.3508 25.707 38.1379 25.707 34.1705C25.707 30.2031 28.7394 26.9902 32.4757 26.9902C36.212 26.9941 39.2407 30.207 39.2444 34.1705Z" stroke="#828282" stroke-width="1.5" stroke-linecap="round" stroke-linejoin="round"></path><path d="M77.759 58.154C74.3747 54.4588 67.8663 46.9946 60.7897 46.9946C53.7093 46.9946 49.6283 63.4595 42.8193 63.4595C36.0103 63.4595 29.8247 56.0147 24.3687 60.7873C18.9127 65.556 13.75 75.3073 13.75 75.3073" stroke="#828282" stroke-width="1.5" stroke-linecap="round" stroke-linejoin="round"></path></svg>