<svg width="20" height="20" viewBox="0 0 20 20" fill="none" xmlns="http://www.w3.org/2000/svg">
<g clip-path="url(#clip0_1429_3653)">
<path fill-rule="evenodd" clip-rule="evenodd" d="M7.29159 7.08325C7.29159 5.35736 8.6907 3.95825 10.4166 3.95825C12.1425 3.95825 13.5416 5.35736 13.5416 7.08325C13.5416 8.80914 12.1425 10.2083 10.4166 10.2083C8.6907 10.2083 7.29159 8.80914 7.29159 7.08325ZM10.4166 5.20825C9.38105 5.20825 8.54159 6.04772 8.54159 7.08325C8.54159 8.11879 9.38105 8.95825 10.4166 8.95825C11.4521 8.95825 12.2916 8.11879 12.2916 7.08325C12.2916 6.04772 11.4521 5.20825 10.4166 5.20825Z" fill="black"/>
<path fill-rule="evenodd" clip-rule="evenodd" d="M4.96359 6.35595C5.19173 3.58827 7.50455 1.45825 10.2816 1.45825H10.5516C13.3286 1.45825 15.6414 3.58827 15.8696 6.35595C15.9919 7.83951 15.5336 9.31263 14.5913 10.465L11.5957 14.1286C10.9863 14.8739 9.84691 14.8739 9.23752 14.1286L6.24185 10.465C5.29957 9.31263 4.84131 7.83951 4.96359 6.35595ZM10.2816 2.70825C8.15509 2.70825 6.38406 4.3393 6.20937 6.45864C6.11369 7.61944 6.47225 8.77208 7.20954 9.67376L10.2052 13.3374C10.3145 13.471 10.5187 13.471 10.628 13.3374L13.6236 9.67376C14.3609 8.77208 14.7195 7.61944 14.6238 6.45864C14.4491 4.3393 12.6781 2.70825 10.5516 2.70825H10.2816Z" fill="black"/>
<path d="M6.80894 13.1961C6.9633 12.8874 6.83816 12.5119 6.52943 12.3576C6.22069 12.2032 5.84527 12.3283 5.6909 12.6371L4.02424 15.9704C3.92736 16.1642 3.93772 16.3942 4.0516 16.5785C4.16548 16.7628 4.36664 16.8749 4.58325 16.8749H16.2499C16.4665 16.8749 16.6677 16.7628 16.7816 16.5785C16.8955 16.3942 16.9058 16.1642 16.8089 15.9704L15.1423 12.6371C14.9879 12.3283 14.6125 12.2032 14.3037 12.3576C13.995 12.5119 13.8699 12.8874 14.0242 13.1961L15.2386 15.6249H5.59452L6.80894 13.1961Z" fill="black"/>
</g>
<defs>
<clipPath id="clip0_1429_3653">
<rect width="20" height="20" fill="white"/>
</clipPath>
</defs>
</svg>
