<svg width="24" height="24" viewBox="0 0 24 24" fill="none" xmlns="http://www.w3.org/2000/svg">
<path fill-rule="evenodd" clip-rule="evenodd" d="M11.5176 3.83984C7.28376 3.83984 3.83984 7.28474 3.83984 11.5198C3.83984 13.1993 4.3815 14.757 5.30225 16.0213L4.34532 18.8747L7.29727 17.9312C8.5114 18.7349 9.9603 19.1998 11.5221 19.1998C15.7559 19.1998 19.1998 15.7548 19.1998 11.5199C19.1998 7.28486 15.7559 3.83997 11.5221 3.83997H11.5176V3.83984Z" stroke="#292929"/>
<path fill-rule="evenodd" clip-rule="evenodd" d="M9.37363 7.7408C9.22471 7.38414 9.11185 7.37063 8.88624 7.36146C8.80943 7.357 8.72382 7.35254 8.62892 7.35254C8.33542 7.35254 8.02854 7.4383 7.84345 7.6279C7.61785 7.85816 7.05811 8.39537 7.05811 9.49707C7.05811 10.5988 7.86154 11.6643 7.96982 11.8134C8.08268 11.9622 9.53617 14.2558 11.793 15.1906C13.5578 15.922 14.0815 15.8542 14.4831 15.7685C15.0699 15.6421 15.8057 15.2084 15.9908 14.6849C16.1759 14.161 16.1759 13.714 16.1216 13.6192C16.0675 13.5244 15.9184 13.4704 15.6928 13.3574C15.4672 13.2445 14.3703 12.7027 14.1626 12.6304C13.9595 12.5537 13.7654 12.5808 13.6121 12.7976C13.3954 13.1001 13.1833 13.4072 13.0117 13.5922C12.8763 13.7367 12.655 13.7548 12.47 13.678C12.2218 13.5742 11.5267 13.3302 10.669 12.5672C10.0055 11.9758 9.55414 11.24 9.42331 11.0188C9.29235 10.7931 9.40981 10.662 9.5135 10.5402C9.62636 10.4001 9.73464 10.3009 9.84751 10.1699C9.96037 10.039 10.0236 9.97122 10.0958 9.81767C10.1726 9.66871 10.1183 9.51517 10.0642 9.40227C10.0101 9.28937 9.55872 8.18767 9.37363 7.7408Z" fill="#292929"/>
</svg>
