<svg width="16" height="16" viewBox="0 0 16 16" fill="none" xmlns="http://www.w3.org/2000/svg">
<path fill-rule="evenodd" clip-rule="evenodd" d="M3.89353 6.57094C5.08507 9.16554 7.20539 11.2283 9.84123 12.346L9.84956 12.3496L10.3588 12.5765C11.0072 12.8654 11.7693 12.6603 12.1851 12.0849L13.0347 10.909C13.0865 10.8372 13.0732 10.7373 13.0042 10.6817L11.5211 9.48518C11.4473 9.4257 11.3389 9.43955 11.2825 9.51566L10.7053 10.2946C10.5651 10.4838 10.3119 10.5495 10.0974 10.4524C8.12645 9.56045 6.54265 7.97665 5.65069 6.00571C5.55362 5.7912 5.61935 5.53804 5.80852 5.39785L6.58744 4.82061C6.66355 4.7642 6.6774 4.65579 6.61792 4.58206L5.42122 3.09869C5.36561 3.02975 5.26577 3.01636 5.19395 3.06821L4.01176 3.92165C3.43257 4.33977 3.22859 5.10834 3.52423 5.75864L3.89313 6.57008C3.89326 6.57037 3.89339 6.57065 3.89353 6.57094ZM9.44663 13.2649C6.58261 12.0492 4.27904 9.80717 2.98434 6.98734L2.98356 6.98564L2.61389 6.1725C2.12116 5.08866 2.46111 3.80772 3.42643 3.11085L4.60863 2.25741C5.11138 1.89447 5.81019 1.98821 6.19953 2.4708L7.39622 3.95416C7.81259 4.47028 7.71561 5.22921 7.18284 5.62404L6.7365 5.9548C7.49045 7.41773 8.68537 8.61266 10.1483 9.3666L10.4791 8.92026C10.8739 8.38748 11.6328 8.29051 12.1489 8.70688L13.6321 9.90341C14.1148 10.2929 14.2085 10.9919 13.8452 11.4947L12.9956 12.6705C12.3027 13.6295 11.0325 13.9715 9.95179 13.49L9.44663 13.2649Z" fill="#525252"/>
</svg>
