<svg width="40" height="40" viewBox="0 0 40 40" fill="none" xmlns="http://www.w3.org/2000/svg">
<path d="M6.99999 5.68859L7.16459 5.49792C7.76813 4.89438 8.71257 4.83951 9.37809 5.33332L9.56875 5.49792L20.8333 16.7617L32.0979 5.49792C32.7015 4.89438 33.6459 4.83951 34.3114 5.33332L34.5021 5.49792C35.1056 6.10146 35.1605 7.04589 34.6667 7.71141L34.5021 7.90208L23.2383 19.1667L34.5021 30.4312C35.1056 31.0348 35.1605 31.9792 34.6667 32.6447L34.5021 32.8354C33.8986 33.4389 32.9541 33.4938 32.2886 33L32.0979 32.8354L20.8333 21.5716L9.56875 32.8354C8.96522 33.4389 8.02078 33.4938 7.35526 33L7.16459 32.8354C6.56105 32.2319 6.50619 31.2874 6.99999 30.6219L7.16459 30.4312L18.4284 19.1667L7.16459 7.90208C6.56105 7.29854 6.50619 6.35411 6.99999 5.68859L7.16459 5.49792L6.99999 5.68859Z" fill="#292929"/>
</svg>
