<svg width="25" height="24" viewBox="0 0 25 24" fill="none" xmlns="http://www.w3.org/2000/svg">
<path fill-rule="evenodd" clip-rule="evenodd" d="M10.2289 14.6655L10.2282 8.4403L16.1723 11.5636L10.2289 14.6655ZM23.2802 7.36155C23.2802 7.36155 23.065 5.83486 22.4057 5.16256C21.569 4.27978 20.6312 4.27563 20.2015 4.22439C17.1229 4.00006 12.505 4.00006 12.505 4.00006H12.4953C12.4953 4.00006 7.8774 4.00006 4.79878 4.22439C4.3684 4.27563 3.43134 4.27978 2.59397 5.16256C1.93465 5.83486 1.72015 7.36155 1.72015 7.36155C1.72015 7.36155 1.50015 9.15481 1.50015 10.9474V12.6285C1.50015 14.4217 1.72015 16.2143 1.72015 16.2143C1.72015 16.2143 1.93465 17.741 2.59397 18.4133C3.43134 19.2961 4.53065 19.2684 5.02015 19.3604C6.78015 19.5308 12.5002 19.5834 12.5002 19.5834C12.5002 19.5834 17.1229 19.5765 20.2015 19.3521C20.6312 19.3002 21.569 19.2961 22.4057 18.4133C23.065 17.741 23.2802 16.2143 23.2802 16.2143C23.2802 16.2143 23.5002 14.4217 23.5002 12.6285V10.9474C23.5002 9.15481 23.2802 7.36155 23.2802 7.36155Z" fill="#CE1312"/>
</svg>
